<svg version="1.1" class="icon" xmlns="http://www.w3.org/2000/svg" xmlns:xlink="http://www.w3.org/1999/xlink" x="0px" y="0px"
	 width="512px" height="512px" viewBox="0 0 512 512" enable-background="new 0 0 512 512" xml:space="preserve">
<path d="M393.378,74.434c0.185-6.15,0.288-12.346,0.288-18.594H120.657c0,6.249,0.104,12.444,0.289,18.594H31.001
	c0,94.956,58.824,176.168,142.017,209.197c18.14,30.133,39.97,50.74,63.813,58.286v71.259H215.92
	c-19.248,0-34.853,15.604-34.853,34.853v8.132h149.865v-8.132c0-19.249-15.604-34.853-34.853-34.853h-18.588v-71.259
	c24.171-7.649,46.268-28.729,64.554-59.538C423.614,248.588,481,168.218,481,74.434H393.378z M60.78,98.699h61.371
	c3.893,55.534,15.227,105.923,31.794,146.451C98.056,214.932,60.78,160.647,60.78,98.699z M316.842,171.325
	c-8.893,7.313-17.705,14.717-26.579,22.053c-0.243,0.214-0.495,0.434-0.665,0.714c2.507,10.91,5.316,21.761,7.935,32.649
	c1.99,5.458-2.664,11.898-8.509,11.47c-2.02-0.024-3.778-1.132-5.389-2.23c-8.698-5.495-17.401-10.987-26.104-16.476
	c-0.741-0.453-1.439-1.021-2.274-1.294c-9.866,5.943-19.583,12.152-29.424,18.144c-2.706,1.615-6.3,1.593-8.956-0.113
	c-2.8-1.667-4.525-5.107-3.863-8.352c2.835-11.641,6.025-23.221,8.731-34.883c-7.992-6.879-16.11-13.621-24.141-20.457
	c-1.819-1.473-3.791-3.016-4.58-5.313c-1.929-4.612,1.124-10.626,6.178-11.346c12.031-1.017,24.144-1.445,36.147-2.547
	c4.151-9.92,8.143-19.916,12.245-29.861c0.764-1.983,1.646-4.049,3.388-5.379c3.857-3.3,10.621-2.195,12.811,2.516
	c4.435,10.984,8.789,22.003,13.195,33.001c0.074,0.373,0.426,0.497,0.77,0.497c11.027,0.755,22.046,1.654,33.071,2.439
	c3.165,0.066,6.303,1.808,7.732,4.682C320.331,164.466,319.74,168.944,316.842,171.325z M361.031,243.515
	c16.209-40.247,27.301-90.021,31.141-144.816h59.049C451.221,159.543,415.266,212.998,361.031,243.515z"/>
</svg>
